<svg version="1.2" xmlns="http://www.w3.org/2000/svg" viewBox="0 0 61 61" width="61" height="61">
	<title>logo-svg</title>
	<style>
		.s0 { fill: #34d8c8 } 
		.s1 { fill: #1ec6b6 } 
		.s2 { fill: #ffffff } 
		.s3 { fill: #2bd8c9 } 
		.s4 { fill: #eefffc } 
	</style>
	<path id="Layer" class="s0" d="m3.7 18.8c3.5-8.9 10.5-13.8 19.1-17.5 1.6-0.3 3-0.3 4.8 0 1 1.6 1.7 2.7 1.9 3.8-4.4 1-9 1.1-12 3.5-4.6 3.5-8 8.6-12.1 12.6-0.7-1.1-1.2-1.7-1.7-2.4z"/>
	<path id="Layer" class="s1" d="m24.5 62c-1.6-0.6-2.7-1.2-4.1-2.3 0-1.3 0.3-2 0.9-2.7 0.8 0.1 1.2 0.3 1.7 0.7 0.7 0.3 1.3 0.4 2.4 0.4 2.3-0.7 4.2-1.5 6.3-2.3 0.4 3.4 2.8 3.7 6.2 2.6 6.6-2.1 11.9-6 16.6-11.4 0.8 0 1.3 0.1 1.9 0.1-3.6 7.8-10.7 11.2-18.3 14.6-4.5 0.3-8.8 0.3-13.6 0.3z"/>
	<path id="Layer" class="s1" d="m3.5 19c0.7 0.5 1.2 1.1 1.8 2.5-0.7 2.8-1.4 4.9-2.2 7.1 2 0.9 3.6 1.5 6.4 2.7-2.8 1.2-4.5 1.8-6.2 2.5 1.4 7.9 5 14.5 10.9 20.4-0.3 0.9-0.3 1.3-0.4 1.6-6-4-10-9.6-12.5-16.6-0.3-4.9-0.3-9.6-0.3-14.7 0.7-2.1 1.5-3.7 2.5-5.5z"/>
	<path id="Layer" class="s1" d="m56.7 47c-0.9 0.1-1.4 0-2.2-0.3 1.3-4.5 2.8-8.5 4.3-12.4-2.1-1.3-3.3-2.1-3.4-2.2 1.3-2.7 2.3-4.6 3.3-6.8-0.3-1-0.8-1.7-1.4-2.7-0.2-0.7-0.3-1.2 0-1.6 1.1 0 1.8 0 2.6 0 0.5 1 1 1.9 1.8 2.9 0.3 4.8 0.3 9.5 0.3 14.6-1.7 3.1-3.4 5.7-5.3 8.5z"/>
	<path id="Layer" class="s1" d="m29.9 5.2c-0.6-1.2-1.3-2.3-1.9-3.9 2-0.3 4.1-0.3 6.5 0-0.2 1.4-0.9 2.5-1.6 3.9-0.1 0.8-0.1 1.3-0.6 1.7-0.9 0.1-1.6 0.1-2.3-0.2-0.1-0.7-0.1-1.1-0.1-1.5z"/>
	<path id="Layer" class="s0" d="m32.9 4.8c0.7-1 1.4-2.1 2.1-3.5 1.1-0.3 2.1-0.3 3.6-0.3 1.7 0.7 3.1 1.4 4.2 2.5-2.2 0.5-4.1 0.7-6.3 0.9-1.4 0.2-2.5 0.3-3.6 0.4z"/>
	<path id="Layer" class="s0" d="m13.9 56.1c0-0.6 0-1 0.6-1.9 2.5 0.5 4.5 1.6 6.5 2.7-0.3 0.8-0.6 1.5-0.9 2.6-2.1-0.8-4.1-2-6.2-3.4z"/>
	<path id="Layer" class="s0" d="m59.9 20.7c-0.8 0.3-1.5 0.3-2.8 0.1-4-4.3-7.3-8.4-10.3-12.6 0.6-0.9 0.9-1.5 1.2-2.1 6.1 2.9 9.5 8.2 11.9 14.6z"/>
	<path id="Layer" class="s1" d="m47.8 6c-0.1 0.7-0.4 1.3-1.3 2-2.2-0.8-3.9-1.6-5.7-2.7-1.2-0.4-2.3-0.7-3.5-0.9-0.1 0-0.5-0.1-0.5-0.1 1.9-0.1 3.8-0.3 6.1-0.5 0.8 0 1.2 0.1 1.9 0.6 1.1 0.8 1.8 1.1 2.6 1.4 0 0 0.3 0 0.4 0.2z"/>
	<path id="Layer" class="s0" d="m47.2 5.5c-0.6 0-1.3-0.3-2.2-1 0.6 0.1 1.4 0.4 2.2 1z"/>
	<path id="Layer" fill-rule="evenodd" class="s2" d="m36.5 4.4q0.5-0.1 1 0.3c1.4 0.5 2.5 0.7 3.5 0.9 1.6 0.8 3.3 1.6 5.2 2.6 3.6 4.2 6.9 8.3 10.5 12.6 0.3 0.6 0.4 1.1 0.6 2.1 0.5 1.3 0.9 2 1.3 2.7-0.9 1.9-1.9 3.8-3.2 6.5 0.1 0.1 1.3 0.9 3.4 2.2-1.5 3.9-3 7.9-4.6 12.4-4.4 5.7-9.7 9.6-16.3 11.7-3.4 1.1-5.8 0.8-6.2-2.6-2.1 0.8-4 1.6-6.5 2.1-1.1-0.3-1.7-0.4-2.3-0.5-0.4-0.1-0.8-0.3-1.6-0.4-2.3-1.2-4.3-2.3-6.7-3.4-6.3-5.3-9.9-11.9-11.3-19.8 1.7-0.7 3.4-1.3 6.2-2.5-2.8-1.2-4.4-1.8-6.4-2.7 0.8-2.2 1.5-4.3 2.3-6.7 4.1-4.7 7.5-9.8 12.1-13.3 3-2.4 7.6-2.5 12-3.5 0.4 0.5 0.4 0.9 0.4 1.9 1 0.4 1.9 0.1 2.8-0.1 0.1-0.4 0.1-0.9 0.2-1.7 1.1-0.5 2.2-0.6 3.6-0.8zm-10.3 21.7c-3 5.9-6.2 11.8-9 17.8-0.6 1.3 0.1 3.2 0.2 4.9 1.7-0.3 3.7 0 4.9-0.9 3.9-2.7 7.8-5.7 11.2-9 2.3-2.2 3.8-5.2 6.3-8.2 2-4 4.2-7.9 5.9-12 0.6-1.4-0.1-3.3-0.1-4.9-1.7 0.2-3.8-0.2-5 0.7-4.7 3.6-9.2 7.5-14.4 11.6z"/>
	<path id="Layer" class="s0" d="m23 57.7c0.5-0.2 1.1-0.1 1.8 0.2-0.5 0.2-1.1 0.1-1.8-0.2z"/>
	<path id="Layer" class="s0" d="m58.7 25.3q-0.8-0.6-1.3-2.1 0.8 0.6 1.3 2.1z"/>
	<path id="Layer" class="s0" d="m32.3 6.9c-0.5 0.2-1.4 0.5-2.3 0.4 0.7-0.3 1.4-0.3 2.3-0.4z"/>
	<path id="Layer" class="s0" d="m40.8 5.3q-1.3 0.1-3.1-0.6 1.2-0.1 3.1 0.6z"/>
	<path id="Layer" class="s1" d="m39.2 31c-1.9 2.7-3.4 5.7-5.7 7.9-3.4 3.3-7.3 6.3-11.2 9-1.2 0.9-3.2 0.6-4.9 0.9-0.1-1.7-0.8-3.6-0.2-4.9 2.8-6 6-11.9 9.6-17.7 1.2 0.9 2 1.9 2.9 3.1 2.3 1.1 3.2 6.9 7 1.8 1.1-0.1 1.8-0.1 2.5-0.1z"/>
	<path id="Layer" class="s3" d="m39.5 30.9c-1 0.1-1.7 0.1-2.8-0.2 1.3-3.8 2.8-7.3 4.4-10.8q-0.7-0.6-1.4-1.1-5.1 5.1-10.2 10.2c-0.7-0.9-1.5-1.9-2.4-3 4.3-4 8.8-7.9 13.5-11.5 1.2-0.9 3.3-0.5 5-0.7 0 1.6 0.7 3.5 0.1 4.9-1.7 4.1-3.9 8-6.2 12.2z"/>
	<path id="Layer" class="s4" d="m29.7 29.3c3.2-3.7 6.6-7.1 10-10.5q0.7 0.5 1.4 1.1c-1.6 3.5-3.1 7-4.7 10.8-3.5 5.5-4.4-0.3-6.7-1.4z"/>
</svg>